<?xml version="1.0" standalone="no"?>
<!DOCTYPE svg PUBLIC "-//W3C//DTD SVG 20010904//EN"
 "http://www.w3.org/TR/2001/REC-SVG-20010904/DTD/svg10.dtd">
<svg version="1.0" xmlns="http://www.w3.org/2000/svg"
 width="353.000000pt" height="353.000000pt" viewBox="0 0 353.000000 353.000000"
 preserveAspectRatio="xMidYMid meet">
<metadata>
Created by potrace 1.14, written by Peter Selinger 2001-2017
</metadata>
<g transform="translate(0.000000,353.000000) scale(0.100000,-0.100000)"
fill="#000000" stroke="none">
<path d="M827 3514 c-392 -72 -700 -361 -800 -751 -22 -88 -22 -89 -22 -998
l0 -910 23 -90 c30 -120 116 -294 192 -388 140 -174 327 -293 547 -350 88 -22
89 -22 998 -22 l910 0 90 23 c120 30 294 116 388 192 172 138 291 323 349 542
22 82 22 94 26 928 2 465 0 874 -3 909 l-7 64 -756 -756 c-848 -846 -803 -807
-952 -815 -70 -3 -95 0 -145 18 -57 21 -83 46 -468 429 -225 223 -417 423
-428 443 -22 44 -25 115 -5 161 17 39 202 222 240 237 39 15 101 12 144 -5 25
-11 137 -116 340 -318 l302 -302 733 733 732 733 -50 46 c-118 107 -276 192
-437 235 -82 22 -90 22 -973 24 -733 2 -904 0 -968 -12z"/>
</g>
</svg>
