<?xml version="1.0" standalone="no"?>
<!DOCTYPE svg PUBLIC "-//W3C//DTD SVG 20010904//EN"
 "http://www.w3.org/TR/2001/REC-SVG-20010904/DTD/svg10.dtd">
<svg version="1.0" xmlns="http://www.w3.org/2000/svg"
 width="512.000000pt" height="512.000000pt" viewBox="0 0 512.000000 512.000000"
 preserveAspectRatio="xMidYMid meet">
<metadata>
Created by potrace 1.14, written by Peter Selinger 2001-2017
</metadata>
<g transform="translate(0.000000,512.000000) scale(0.100000,-0.100000)"
fill="#000000" stroke="none">
<path d="M845 5106 c-429 -67 -774 -419 -834 -850 -15 -108 -15 -3284 0 -3392
33 -236 168 -482 346 -626 134 -109 246 -167 408 -211 l80 -21 1650 -4 c1208
-2 1675 0 1745 8 450 55 814 416 870 861 6 55 10 600 10 1579 l-1 1495 -1152
-1155 c-885 -888 -1164 -1162 -1203 -1183 -115 -61 -239 -55 -344 15 -34 23
-288 266 -599 574 -621 615 -596 584 -596 744 0 135 22 179 162 320 141 142
186 165 323 165 156 0 156 0 551 -392 l336 -334 1079 1086 c594 597 1080 1090
1082 1094 4 13 -111 93 -193 134 -94 47 -216 84 -316 97 -129 16 -3299 12
-3404 -4z"/>
</g>
</svg>
